<svg xmlns="http://www.w3.org/2000/svg" viewBox="0 0 270.47 67.45"><defs><style>.cls-1{fill:#004fce;}.cls-2{fill:#f2f2f2;}.cls-3{fill:#121212;}</style></defs><g id="Layer_2" data-name="Layer 2"><g id="Layer_1-2" data-name="Layer 1"><circle class="cls-1" cx="33.73" cy="33.73" r="33.73"/><path class="cls-2" d="M57,35.64a23.59,23.59,0,0,1-18.05,21V7a26.92,26.92,0,0,0-3.74-.48V60.89A27.33,27.33,0,0,0,60.73,35.62H57v0Z"/><path class="cls-2" d="M31.42,6.57V28.14H27.68V11A23.48,23.48,0,0,0,11,27.08c4.84,2.77,15.63,8.88,20.4,11.59v22.2A27.31,27.31,0,0,1,6.91,39.37h3.84A23.51,23.51,0,0,0,27.68,56.46V40.84c-6.5-3.68-14.45-8.2-20.93-11.9A27.31,27.31,0,0,1,31.42,6.56Z"/><path class="cls-3" d="M83.86,40.72a11.27,11.27,0,0,1-3.9-.59,8.11,8.11,0,0,1-2.69-1.53,8.93,8.93,0,0,1-1.71-2,9.67,9.67,0,0,1-1-2,12.26,12.26,0,0,1-.5-2.12h3.57a8.28,8.28,0,0,0,.55,1.74,6.52,6.52,0,0,0,1,1.52A4.92,4.92,0,0,0,81.05,37a7.23,7.23,0,0,0,2.87.51,6.28,6.28,0,0,0,4.17-1.27A4.08,4.08,0,0,0,89.62,33a3.3,3.3,0,0,0-1.16-2.71,8.31,8.31,0,0,0-3.3-1.5l-3.48-.86a15,15,0,0,1-3.43-1.3,7,7,0,0,1-2.53-2.21,5.94,5.94,0,0,1-1-3.42,6.79,6.79,0,0,1,1.14-4A7.34,7.34,0,0,1,79,14.52a10.75,10.75,0,0,1,4.45-.89,9.45,9.45,0,0,1,4,.74A7.66,7.66,0,0,1,90,16.2a8.24,8.24,0,0,1,1.43,2.18A12.64,12.64,0,0,1,92.21,21H88.8A6.18,6.18,0,0,0,88,18.84a4.72,4.72,0,0,0-1.65-1.48,6,6,0,0,0-3-.64,5.45,5.45,0,0,0-3.86,1.22,3.7,3.7,0,0,0-1.3,2.77,2.87,2.87,0,0,0,1,2.29,6.89,6.89,0,0,0,2.84,1.32l3.78.94a14.25,14.25,0,0,1,3.68,1.44,7.39,7.39,0,0,1,2.6,2.42,6.47,6.47,0,0,1,1,3.62,7.71,7.71,0,0,1-1,3.95,7.51,7.51,0,0,1-3.1,2.9,10.28,10.28,0,0,1-5.1,1.14Z"/><path class="cls-3" d="M104.44,40.72a8.66,8.66,0,0,1-5.08-1.42,9.18,9.18,0,0,1-3.14-3.65,11.08,11.08,0,0,1,0-9.5,9.09,9.09,0,0,1,3.14-3.63,8.81,8.81,0,0,1,5.08-1.42,8.67,8.67,0,0,1,5.09,1.42,9.26,9.26,0,0,1,3.14,3.63,11.08,11.08,0,0,1,0,9.5,9,9,0,0,1-3.14,3.65A8.77,8.77,0,0,1,104.44,40.72Zm0-2.95a5.23,5.23,0,0,0,3.23-1,6.12,6.12,0,0,0,2-2.56,8.66,8.66,0,0,0,0-6.63,6.18,6.18,0,0,0-2-2.54,5.76,5.76,0,0,0-6.43,0,6.23,6.23,0,0,0-2,2.54,8.17,8.17,0,0,0-.66,3.32,8.47,8.47,0,0,0,.66,3.31,6,6,0,0,0,2,2.56A5.25,5.25,0,0,0,104.44,37.77Z"/><path class="cls-3" d="M116.94,40.38l0-27.06h3.35V40.38Z"/><path class="cls-3" d="M130.05,40.72A5.93,5.93,0,0,1,125.56,39a6.67,6.67,0,0,1-1.67-4.84V21.49h3.38V34a3.87,3.87,0,0,0,1,2.85,3.69,3.69,0,0,0,2.69,1,4.13,4.13,0,0,0,2.75-.89,5,5,0,0,0,1.49-2.28,9,9,0,0,0,.47-2.84V21.48h3.37V40.36h-3.37V37.65h-.21a5.28,5.28,0,0,1-.83,1.16,5.5,5.5,0,0,1-1.7,1.31,6.16,6.16,0,0,1-2.9.59Z"/><path class="cls-3" d="M150.27,40.72a5.92,5.92,0,0,1-4.4-1.5A5.74,5.74,0,0,1,144.39,35V24.25H141V21.48h3.37v-4.7h3.38v4.74h4.59v2.77h-4.59V35.05a2.61,2.61,0,0,0,.78,2.09,3.46,3.46,0,0,0,2.28.65,17.87,17.87,0,0,0,2.21-.2v2.87a17,17,0,0,1-2.76.26Z"/><path class="cls-3" d="M157.92,17.92a2.1,2.1,0,0,1-1.58-.64,2.14,2.14,0,0,1-.61-1.53,2.21,2.21,0,0,1,.61-1.57,2.1,2.1,0,0,1,1.58-.64,2.13,2.13,0,0,1,1.58.64,2.22,2.22,0,0,1,0,3.1A2.23,2.23,0,0,1,157.92,17.92Zm-1.67,22.46V21.5h3.38V40.38Z"/><path class="cls-3" d="M172.27,40.72a8.64,8.64,0,0,1-5.08-1.42A9.12,9.12,0,0,1,164,35.65a11.17,11.17,0,0,1,0-9.5,9,9,0,0,1,3.15-3.63,8.79,8.79,0,0,1,5.08-1.42,8.66,8.66,0,0,1,5.08,1.42,9.18,9.18,0,0,1,3.14,3.63,11.08,11.08,0,0,1,0,9.5,8.94,8.94,0,0,1-3.14,3.65A8.71,8.71,0,0,1,172.27,40.72Zm0-2.95a5.22,5.22,0,0,0,3.22-1,6.12,6.12,0,0,0,2-2.56,8.66,8.66,0,0,0,0-6.63,6.18,6.18,0,0,0-2-2.54,5.76,5.76,0,0,0-6.43,0,6.23,6.23,0,0,0-2,2.54,8.16,8.16,0,0,0-.65,3.32,8.46,8.46,0,0,0,.65,3.31,6,6,0,0,0,2,2.56A5.3,5.3,0,0,0,172.27,37.77Z"/><path class="cls-3" d="M184.4,40.38V21.5h3.38v2.74H188a10.9,10.9,0,0,1,.84-1.17,5,5,0,0,1,1.69-1.32,5.65,5.65,0,0,1,2.77-.59,6.35,6.35,0,0,1,3.53.94A6.16,6.16,0,0,1,199,24.66a8,8,0,0,1,.76,3.6V40.4h-3.37V28.45a4.71,4.71,0,0,0-1.05-3.14,3.78,3.78,0,0,0-3-1.24,4,4,0,0,0-2.61.79,4.63,4.63,0,0,0-1.48,2.1,7.93,7.93,0,0,0-.48,2.76V40.38H184.4Z"/><path class="cls-3" d="M209.94,40.72a9.26,9.26,0,0,1-3.59-.61,6.27,6.27,0,0,1-2.22-1.52,6.74,6.74,0,0,1-1.22-1.8,9.47,9.47,0,0,1-.6-2.13h3.41a5.41,5.41,0,0,0,.65,1.58,3.72,3.72,0,0,0,1.28,1.1,4.72,4.72,0,0,0,2.33.48,3.86,3.86,0,0,0,2.61-.79,2.5,2.5,0,0,0,.93-2,2,2,0,0,0-.73-1.64,5.37,5.37,0,0,0-2.08-.94l-2.57-.6a14.09,14.09,0,0,1-2.67-1,5.17,5.17,0,0,1-2-1.65,4.34,4.34,0,0,1-.76-2.62,5,5,0,0,1,1.81-4,7,7,0,0,1,4.74-1.55,8.2,8.2,0,0,1,3.24.55,6.09,6.09,0,0,1,2.06,1.38,5.87,5.87,0,0,1,1.14,1.64,8.62,8.62,0,0,1,.58,1.93H213a4,4,0,0,0-.59-1.32,3.17,3.17,0,0,0-1.12-.94,4.19,4.19,0,0,0-2-.41,3.43,3.43,0,0,0-2.49.78,2.39,2.39,0,0,0-.79,1.71,1.77,1.77,0,0,0,.73,1.44,5.28,5.28,0,0,0,1.91.85l2.61.6a9.81,9.81,0,0,1,4,1.86,4.56,4.56,0,0,1,1.58,3.73,5.29,5.29,0,0,1-.84,2.89,5.76,5.76,0,0,1-2.34,2.13,8.07,8.07,0,0,1-3.72.78Z"/><path class="cls-3" d="M219.7,40.38l0-27.06h3.35V40.38Z"/><path class="cls-3" d="M235.57,40.72a8.66,8.66,0,0,1-5.08-1.42,9.18,9.18,0,0,1-3.14-3.65,11.08,11.08,0,0,1,0-9.5,9.09,9.09,0,0,1,3.14-3.63,8.81,8.81,0,0,1,5.08-1.42,8.67,8.67,0,0,1,5.09,1.42,9.26,9.26,0,0,1,3.14,3.63,11.17,11.17,0,0,1,0,9.5,9,9,0,0,1-3.14,3.65A8.72,8.72,0,0,1,235.57,40.72Zm0-2.95a5.25,5.25,0,0,0,3.23-1,6.12,6.12,0,0,0,2-2.56,8.66,8.66,0,0,0,0-6.63,6.18,6.18,0,0,0-2-2.54,5.19,5.19,0,0,0-3.23-1,5.12,5.12,0,0,0-3.2,1,6.23,6.23,0,0,0-2,2.54,8.17,8.17,0,0,0-.66,3.32,8.47,8.47,0,0,0,.66,3.31,6,6,0,0,0,2,2.56A5.25,5.25,0,0,0,235.57,37.77Z"/><path class="cls-3" d="M249.92,40.38V24.29h-3.1V21.52h3.1V19.21a8.21,8.21,0,0,1,.53-2.93,5,5,0,0,1,1.78-2.36A5.59,5.59,0,0,1,255.6,13a8.54,8.54,0,0,1,2.28.33V16a7.78,7.78,0,0,0-1.8-.25,2.33,2.33,0,0,0-2.21,1,5,5,0,0,0-.57,2.5v2.31h4.39v2.77H253.3V40.4h-3.37v0Z"/><path class="cls-3" d="M267.7,40.72a5.92,5.92,0,0,1-4.4-1.5A5.74,5.74,0,0,1,261.83,35V24.25h-3.38V21.48h3.38v-4.7h3.37v4.74h4.59v2.77H265.2V35.05a2.61,2.61,0,0,0,.78,2.09,3.5,3.5,0,0,0,2.28.65,17.56,17.56,0,0,0,2.21-.2v2.87a17,17,0,0,1-2.76.26Z"/><path class="cls-3" d="M77,54.48a2.7,2.7,0,0,1-1.27-.28,2.88,2.88,0,0,1-.91-.74,3.13,3.13,0,0,1-.56-1.05,4.12,4.12,0,0,1-.18-1.21A4.23,4.23,0,0,1,74.29,50a3.22,3.22,0,0,1,.56-1,2.75,2.75,0,0,1,.91-.74A2.83,2.83,0,0,1,77,48a3,3,0,0,1,1,.15,2.68,2.68,0,0,1,.71.4,2,2,0,0,1,.46.51,3.59,3.59,0,0,1,.26.52c0,.15.1.35.15.55h-.48a2.81,2.81,0,0,0-.21-.58,1.56,1.56,0,0,0-.35-.51,1.82,1.82,0,0,0-.61-.41,2.6,2.6,0,0,0-1-.17,2.28,2.28,0,0,0-1.07.24,2.47,2.47,0,0,0-.76.64,3.13,3.13,0,0,0-.46.89,3.5,3.5,0,0,0-.15,1,3.68,3.68,0,0,0,.15,1,3,3,0,0,0,.46.89,2.23,2.23,0,0,0,.76.64A2.41,2.41,0,0,0,77,54a2.24,2.24,0,0,0,1-.17,1.86,1.86,0,0,0,.61-.41,1.83,1.83,0,0,0,.35-.5c.07-.18.14-.36.21-.59h.48a2,2,0,0,1-.15.55,5,5,0,0,1-.26.52,2.44,2.44,0,0,1-.46.51,2.31,2.31,0,0,1-.71.4A3,3,0,0,1,77,54.48Z"/><path class="cls-3" d="M83.15,54.48a2.44,2.44,0,0,1-1.27-.31,2,2,0,0,1-.76-.86,3,3,0,0,1-.25-1.23V48h.48v4a2.07,2.07,0,0,0,.46,1.4,1.64,1.64,0,0,0,1.34.51,1.69,1.69,0,0,0,1.35-.51,2.1,2.1,0,0,0,.45-1.4V48h.48v4a2.85,2.85,0,0,1-.25,1.23,2.09,2.09,0,0,1-.76.86,2.34,2.34,0,0,1-1.27.31Z"/><path class="cls-3" d="M88.93,54.48a3.3,3.3,0,0,1-1-.14,1.47,1.47,0,0,1-.64-.36,1.95,1.95,0,0,1-.61-.92,3.27,3.27,0,0,1-.08-.5h.48a2.5,2.5,0,0,0,.13.51,1.63,1.63,0,0,0,.28.45,1.27,1.27,0,0,0,.53.38,2.13,2.13,0,0,0,.88.16,1.76,1.76,0,0,0,.81-.18,1.27,1.27,0,0,0,.56-.46,1.22,1.22,0,0,0,.2-.69,1.09,1.09,0,0,0-.17-.64,1.14,1.14,0,0,0-.46-.4,2.83,2.83,0,0,0-.66-.24l-.79-.19a2.64,2.64,0,0,1-1.14-.55,1.29,1.29,0,0,1-.43-1.05,1.53,1.53,0,0,1,.25-.89,1.72,1.72,0,0,1,.69-.59,2.4,2.4,0,0,1,1-.2,2.2,2.2,0,0,1,1,.17,1.74,1.74,0,0,1,.59.45,2.24,2.24,0,0,1,.46,1.15h-.46a1.59,1.59,0,0,0-.13-.46,1.33,1.33,0,0,0-.24-.4,1.12,1.12,0,0,0-.45-.33,1.93,1.93,0,0,0-.74-.13,1.65,1.65,0,0,0-.81.17,1.2,1.2,0,0,0-.51.46,1,1,0,0,0-.17.6.88.88,0,0,0,.31.74,2.12,2.12,0,0,0,.88.4l.81.19a2.4,2.4,0,0,1,1.19.6,1.52,1.52,0,0,1,.46,1.14,1.7,1.7,0,0,1-.24.89,1.88,1.88,0,0,1-.71.66,2.38,2.38,0,0,1-1.07.23Z"/><path class="cls-3" d="M93.79,54.39V48.48H91.65v-.43H96.4v.43H94.27v5.91Z"/><path class="cls-3" d="M99.65,54.48a2.73,2.73,0,0,1-1.29-.28,2.9,2.9,0,0,1-1-.74,3,3,0,0,1-.56-1.05,3.66,3.66,0,0,1-.19-1.19A4,4,0,0,1,96.85,50a2.88,2.88,0,0,1,1.51-1.79A3,3,0,0,1,99.65,48a2.78,2.78,0,0,1,1.29.27,3,3,0,0,1,1,.74,2.81,2.81,0,0,1,.56,1.05,3.79,3.79,0,0,1,.19,1.19,4,4,0,0,1-.19,1.19,3,3,0,0,1-.56,1.05,2.77,2.77,0,0,1-1,.74A2.85,2.85,0,0,1,99.65,54.48Zm0-.45a2.48,2.48,0,0,0,1.26-.34,2.6,2.6,0,0,0,.92-1,3.39,3.39,0,0,0,0-3,2.5,2.5,0,0,0-.92-1,2.37,2.37,0,0,0-1.26-.35,2.3,2.3,0,0,0-1.24.35,2.5,2.5,0,0,0-.92,1,3.48,3.48,0,0,0,0,3,2.6,2.6,0,0,0,.92,1A2.43,2.43,0,0,0,99.65,54Z"/><path class="cls-3" d="M103.91,54.39V48.05h.64l2.26,4.16,2.25-4.16h.64v6.34h-.46V48.71l-2.19,4h-.43l-2.23-4.06v5.7h-.48Z"/><path class="cls-3" d="M115.2,54.48a3.35,3.35,0,0,1-1-.14,1.53,1.53,0,0,1-.64-.36,1.75,1.75,0,0,1-.4-.46,1.32,1.32,0,0,1-.2-.46,5.07,5.07,0,0,1-.09-.5h.49a2,2,0,0,0,.12.51,1.63,1.63,0,0,0,.28.45,1.34,1.34,0,0,0,.53.38,2.2,2.2,0,0,0,.88.16,1.83,1.83,0,0,0,.82-.18,1.24,1.24,0,0,0,.55-.46,1.22,1.22,0,0,0,.21-.69,1.1,1.1,0,0,0-.18-.64,1.14,1.14,0,0,0-.46-.4,2.83,2.83,0,0,0-.66-.24l-.79-.19a2.64,2.64,0,0,1-1.14-.55,1.29,1.29,0,0,1-.43-1.05,1.46,1.46,0,0,1,.26-.89,1.66,1.66,0,0,1,.69-.59,2.32,2.32,0,0,1,1-.2,2.28,2.28,0,0,1,1,.17,1.69,1.69,0,0,1,.58.45,2.14,2.14,0,0,1,.31.54,2.48,2.48,0,0,1,.15.61h-.46a2,2,0,0,0-.12-.46,1.37,1.37,0,0,0-.25-.4,1.12,1.12,0,0,0-.45-.33,1.93,1.93,0,0,0-.74-.13,1.67,1.67,0,0,0-.81.17,1.23,1.23,0,0,0-.68,1.06.88.88,0,0,0,.31.74,2.18,2.18,0,0,0,.88.4l.81.19a2.32,2.32,0,0,1,1.19.6,1.46,1.46,0,0,1,.47,1.14,1.7,1.7,0,0,1-.25.89,1.81,1.81,0,0,1-.71.66,2.06,2.06,0,0,1-1.07.23Z"/><path class="cls-3" d="M121.35,54.48a2.73,2.73,0,0,1-1.29-.28,2.76,2.76,0,0,1-.94-.74,2.83,2.83,0,0,1-.57-1.05,3.94,3.94,0,0,1-.18-1.19,4.28,4.28,0,0,1,.18-1.19,3,3,0,0,1,1.51-1.79,3,3,0,0,1,1.29-.27,2.8,2.8,0,0,1,1.3.27,2.89,2.89,0,0,1,.94.74,3,3,0,0,1,.57,1.05,4.09,4.09,0,0,1,.18,1.19,4.34,4.34,0,0,1-.18,1.19,3.25,3.25,0,0,1-.57,1.05,2.65,2.65,0,0,1-.94.74A2.87,2.87,0,0,1,121.35,54.48Zm0-.45a2.41,2.41,0,0,0,2.18-1.31,3.39,3.39,0,0,0,0-3,2.41,2.41,0,0,0-.91-1,2.38,2.38,0,0,0-1.27-.35,2.3,2.3,0,0,0-1.24.35,2.41,2.41,0,0,0-.91,1,3.39,3.39,0,0,0,0,3,2.5,2.5,0,0,0,.91,1A2.43,2.43,0,0,0,121.35,54Z"/><path class="cls-3" d="M125.62,54.39V48.05h3.82v.43H126.1V51H129v.43H126.1v2.94Z"/><path class="cls-3" d="M132.57,54.39V48.48h-2.14v-.43h4.74v.43h-2.12v5.91Z"/><path class="cls-3" d="M137.74,54.39,136,48.05h.51L138,53.69l1.6-5.64h.48l1.6,5.64,1.52-5.64h.51L142,54.39h-.55l-1.58-5.56-1.58,5.56h-.51Z"/><path class="cls-3" d="M143.81,54.39l2.28-6.34h.58L149,54.39h-.5l-.64-1.77H145l-.64,1.77h-.52Zm1.27-2.18h2.56l-1.27-3.59-1.29,3.59Z"/><path class="cls-3" d="M150.06,54.39V48.05h2a1.86,1.86,0,0,1,1,.26,1.73,1.73,0,0,1,.64.65,1.92,1.92,0,0,1,.2.84,1.69,1.69,0,0,1-.17.76,1.39,1.39,0,0,1-.51.62,1.79,1.79,0,0,1-.83.35l1.71,2.89h-.56L152,51.56h-1.43v2.86H150v0Zm2-5.91h-1.55V51.1h1.55a1.62,1.62,0,0,0,.79-.19,1.19,1.19,0,0,0,.47-.5,1.41,1.41,0,0,0,.15-.62,1.25,1.25,0,0,0-.15-.61,1.32,1.32,0,0,0-.47-.5,1.47,1.47,0,0,0-.79-.19Z"/><path class="cls-3" d="M155.64,54.39V48.05h3.72v.43h-3.24v2.44h2.82v.43h-2.82v2.59h3.29v.43h-3.77v0Z"/><path class="cls-3" d="M162.75,54.39V48.05h1.9a2.75,2.75,0,0,1,1.31.28,2.42,2.42,0,0,1,.94.73,3.1,3.1,0,0,1,.55,1,3.53,3.53,0,0,1,.19,1.16,3.81,3.81,0,0,1-.19,1.16,3,3,0,0,1-.55,1,2.62,2.62,0,0,1-.94.73,3.16,3.16,0,0,1-1.31.27h-1.9Zm1.88-5.91h-1.42V54h1.42a2.57,2.57,0,0,0,1.1-.22,2.65,2.65,0,0,0,.79-.62,2.74,2.74,0,0,0,.46-.88,3.41,3.41,0,0,0,.15-1,3.3,3.3,0,0,0-.15-1,2.9,2.9,0,0,0-.46-.89,2.1,2.1,0,0,0-.79-.61,2.18,2.18,0,0,0-1.1-.26Z"/><path class="cls-3" d="M168.89,54.39V48.05h3.73v.43h-3.25v2.44h2.83v.43h-2.83v2.59h3.3v.43h-3.78v0Z"/><path class="cls-3" d="M175.92,54.39l-2.28-6.34h.52l2.05,5.78,2-5.78h.51l-2.28,6.34Z"/><path class="cls-3" d="M179.91,54.39V48.05h3.72v.43h-3.24v2.44h2.82v.43h-2.82v2.59h3.29v.43h-3.77v0Z"/><path class="cls-3" d="M185,54.39V48.05h.48V54h3.36v.43Z"/><path class="cls-3" d="M192.4,54.48a2.73,2.73,0,0,1-1.29-.28,2.9,2.9,0,0,1-1-.74,3,3,0,0,1-.56-1.05,3.66,3.66,0,0,1-.19-1.19A4.29,4.29,0,0,1,189.6,50a2.88,2.88,0,0,1,1.51-1.79A3,3,0,0,1,192.4,48a2.76,2.76,0,0,1,1.29.27,3,3,0,0,1,.95.74A2.81,2.81,0,0,1,195.2,50a3.79,3.79,0,0,1,.19,1.19,4,4,0,0,1-.19,1.19,3,3,0,0,1-.56,1.05,2.77,2.77,0,0,1-.95.74A2.89,2.89,0,0,1,192.4,54.48Zm0-.45a2.48,2.48,0,0,0,1.26-.34,2.6,2.6,0,0,0,.92-1,3.39,3.39,0,0,0,0-3,2.5,2.5,0,0,0-.92-1,2.37,2.37,0,0,0-1.26-.35,2.3,2.3,0,0,0-1.24.35,2.5,2.5,0,0,0-.92,1,3.48,3.48,0,0,0,0,3,2.6,2.6,0,0,0,.92,1A2.43,2.43,0,0,0,192.4,54Z"/><path class="cls-3" d="M196.66,54.39V48.05h2.16a2.06,2.06,0,0,1,1.14.3,1.82,1.82,0,0,1,.69.74,2,2,0,0,1,.22.94,2.06,2.06,0,0,1-.22.94,1.76,1.76,0,0,1-.69.74,2.15,2.15,0,0,1-1.14.3h-1.68V54.4h-.48v0Zm2.16-5.91h-1.68v3.07h1.68a1.56,1.56,0,0,0,.88-.23,1.29,1.29,0,0,0,.51-.56,1.53,1.53,0,0,0,.18-.74,1.5,1.5,0,0,0-.18-.74,1.32,1.32,0,0,0-.51-.56,1.74,1.74,0,0,0-.88-.23Z"/><path class="cls-3" d="M202,54.39V48.05h.64l2.26,4.16,2.25-4.16h.64v6.34h-.46V48.71l-2.23,4h-.43l-2.23-4.06v5.7H202Z"/><path class="cls-3" d="M209.28,54.39V48.05H213v.43h-3.25v2.44h2.83v.43h-2.83v2.59h3.3v.43h-3.78v0Z"/><path class="cls-3" d="M214.42,54.39V48.05h.46l3.77,5.5v-5.5h.49v6.34h-.46l-3.77-5.51v5.51Z"/><path class="cls-3" d="M222.37,54.39V48.48h-2.14v-.43H225v.43h-2.13v5.91Z"/><path class="cls-3" d="M230.72,54.48a2.72,2.72,0,0,1-1.28-.28,3,3,0,0,1-.91-.74,3.1,3.1,0,0,1-.55-1.05,3.83,3.83,0,0,1-.19-1.21A3.9,3.9,0,0,1,228,50a3.2,3.2,0,0,1,.55-1,2.64,2.64,0,0,1,2.19-1,3,3,0,0,1,1,.15,2.53,2.53,0,0,1,.71.4,1.82,1.82,0,0,1,.46.51,2.29,2.29,0,0,1,.26.52c.05.15.1.35.15.55h-.48a2.81,2.81,0,0,0-.2-.58,1.94,1.94,0,0,0-.35-.51,1.86,1.86,0,0,0-.62-.41,2.55,2.55,0,0,0-.94-.17,2.2,2.2,0,0,0-1.83.88,2.69,2.69,0,0,0-.46.89,3.2,3.2,0,0,0-.16,1,3.37,3.37,0,0,0,.16,1,2.6,2.6,0,0,0,.46.89,2.05,2.05,0,0,0,.76.64,2.41,2.41,0,0,0,1.07.24,2.2,2.2,0,0,0,.94-.17,1.91,1.91,0,0,0,.62-.41,2.41,2.41,0,0,0,.35-.5c.07-.18.13-.36.2-.59h.48a2,2,0,0,1-.15.55,2.79,2.79,0,0,1-.26.52,2.33,2.33,0,0,1-1.17.91A2.93,2.93,0,0,1,230.72,54.48Z"/><path class="cls-3" d="M237.35,54.48a2.73,2.73,0,0,1-1.29-.28,2.9,2.9,0,0,1-.95-.74,2.81,2.81,0,0,1-.56-1.05,3.66,3.66,0,0,1-.19-1.19,4,4,0,0,1,.19-1.19,2.88,2.88,0,0,1,.56-1.05,3,3,0,0,1,.95-.74,3,3,0,0,1,1.29-.27,2.78,2.78,0,0,1,1.29.27,3,3,0,0,1,1,.74,3,3,0,0,1,.56,1.05,3.79,3.79,0,0,1,.19,1.19,4,4,0,0,1-.19,1.19,3.22,3.22,0,0,1-.56,1.05,2.77,2.77,0,0,1-1,.74A2.85,2.85,0,0,1,237.35,54.48Zm0-.45a2.48,2.48,0,0,0,1.26-.34,2.6,2.6,0,0,0,.92-1,3.39,3.39,0,0,0,0-3,2.5,2.5,0,0,0-.92-1,2.37,2.37,0,0,0-1.26-.35,2.3,2.3,0,0,0-1.24.35,2.5,2.5,0,0,0-.92,1,3.39,3.39,0,0,0,0,3,2.46,2.46,0,0,0,.92,1A2.43,2.43,0,0,0,237.35,54Z"/><path class="cls-3" d="M241.61,54.39V48.05h.64l2.26,4.16,2.25-4.16h.64v6.34h-.46V48.71l-2.23,4h-.43l-2.23-4.06v5.7h-.44Z"/><path class="cls-3" d="M248.92,54.39V48.05h2.16a2.06,2.06,0,0,1,1.14.3,1.79,1.79,0,0,1,.68.74,1.92,1.92,0,0,1,.23.94,2,2,0,0,1-.23.94,1.73,1.73,0,0,1-.68.74,2.15,2.15,0,0,1-1.14.3H249.4V54.4h-.48v0Zm2.14-5.91h-1.68v3.07h1.68a1.58,1.58,0,0,0,.88-.23,1.29,1.29,0,0,0,.51-.56,1.53,1.53,0,0,0,.18-.74,1.5,1.5,0,0,0-.18-.74,1.39,1.39,0,0,0-.51-.56,1.64,1.64,0,0,0-.88-.23Z"/><path class="cls-3" d="M253.31,54.39l2.28-6.34h.59l2.28,6.34H258l-.63-1.77h-2.85l-.63,1.77h-.53Zm1.3-2.18h2.55l-1.27-3.59-1.27,3.59Z"/><path class="cls-3" d="M259.59,54.39V48.05H260l3.78,5.5v-5.5h.48v6.34h-.45l-3.78-5.51v5.51Z"/><path class="cls-3" d="M267.65,54.39V52.05l-2.33-4h.53l2,3.53,2-3.53h.53l-2.33,4v2.34h-.47Z"/></g></g></svg>